<?xml version="1.0" encoding="utf-8"?>
<!-- Generator: Adobe Illustrator 22.1.0, SVG Export Plug-In . SVG Version: 6.00 Build 0)  -->
<svg version="1.1" id="Layer_1" xmlns="http://www.w3.org/2000/svg" xmlns:xlink="http://www.w3.org/1999/xlink" x="0px" y="0px"
	 viewBox="0 0 60.3 75.3" style="enable-background:new 0 0 60.3 75.3;" xml:space="preserve">
<style type="text/css">
	.st0{fill:#400049;}
	.st1{fill:#70007C;}
	.st2{fill:#80008E;}
	.st3{fill:#A200AF;}
	.st4{font-family:'IRANSans';}
	.st5{font-size:6px;}
</style>
<title>NP-fooddelivery-92</title>
<g>
	<path d="M55.1,7.8H40.7c-3-5.8-10.1-8.1-15.9-5.1c-2.2,1.1-4,2.9-5.1,5.1H5.1c-2.2,0-4,1.8-4,4l0,0v32.7c0,2.2,1.8,4,4,4h19.4
		c-0.1,1.9-0.7,6.5-5.4,8.3h-3.7c-0.6,0-1,0.4-1,1s0.4,1,1,1h29.5c0.6,0,1-0.4,1-1s-0.4-1-1-1h-3.7c-4.7-1.8-5.3-6.4-5.4-8.3h19.4
		c2.2,0,4-1.8,4-4V11.9C59.1,9.7,57.3,7.9,55.1,7.8C55.1,7.9,55.1,7.8,55.1,7.8z M30.1,3.4c5.4,0,9.8,4.4,9.8,9.9s-4.4,9.9-9.8,9.9
		s-9.9-4.4-9.9-9.9l0,0C20.3,7.8,24.7,3.4,30.1,3.4C30.1,3.4,30.1,3.4,30.1,3.4L30.1,3.4z M37.3,56.9H22.9c2.3-2.2,3.6-5.2,3.6-8.3
		h7.2C33.7,51.7,35.1,54.7,37.3,56.9L37.3,56.9z M57.1,44.5c0,1.1-0.9,2-2,2h-50c-1.1,0-2-0.9-2-2V11.9c0-1.1,0.9-2,2-2h13.7
		c-0.3,1.1-0.5,2.2-0.5,3.4c0.2,6.5,5.6,11.7,12.2,11.5c6.3-0.2,11.3-5.2,11.5-11.5c0-1.2-0.2-2.3-0.5-3.4h13.6c1.1,0,2,0.9,2,2
		L57.1,44.5z"/>
	<path d="M43.5,12.4c0,0.3,0.2,0.5,0.5,0.5h10v30.5H15.9c-0.3,0-0.5,0.2-0.5,0.5s0.2,0.5,0.5,0.5H55V11.9H44
		C43.7,11.9,43.5,12.1,43.5,12.4C43.5,12.4,43.5,12.4,43.5,12.4z"/>
	<path d="M12.8,43.4H6.3V12.9h9.6c0.3,0,0.5-0.2,0.5-0.5s-0.2-0.5-0.5-0.5H5.3v32.5h7.5c0.3,0,0.5-0.2,0.5-0.5S13,43.4,12.8,43.4z"
		/>
	<path d="M9.4,31.7v5c0,1.7,1.3,3,3,3h35.5c1.7,0,3-1.3,3-3v-5c0-1.7-1.3-3-3-3h-6.8c-0.3,0-0.5,0.2-0.5,0.5s0.2,0.5,0.5,0.5h6.8
		c1.1,0,2,0.9,2,2v5c0,1.1-0.9,2-2,2H12.4c-1.1,0-2-0.9-2-2v-5c0-1.1,0.9-2,2-2h25.5v-1H12.4C10.7,28.7,9.4,30,9.4,31.7z"/>
	<path class="st0" d="M18.1,34l1.1-0.6l-0.5-0.8l-1.1,0.6l-0.2,0.1c-0.1,0.1-0.1,0.1-0.2,0.2c0-0.1,0.1-0.2,0.1-0.3
		c0-0.1,0-0.2,0-0.3v-1.3h-0.9V33c0,0.2,0,0.4,0.1,0.5c-0.1-0.1-0.3-0.3-0.4-0.3l-1.1-0.7l-0.4,0.8l1.1,0.6l0.3,0.1
		c0.1,0,0.2,0.1,0.3,0.1c-0.1,0-0.2,0-0.3,0.1l-0.3,0.1L14.4,35l0.5,0.8l1.1-0.6c0.2-0.1,0.3-0.2,0.4-0.3c0,0.1-0.1,0.2-0.1,0.3
		c0,0.1,0,0.2,0,0.3v1.3h0.9v-1.3c0-0.2,0-0.4-0.1-0.5l0.2,0.2l0.2,0.2l1.1,0.6l0.5-0.8l-1.1-0.7c-0.2-0.1-0.3-0.2-0.5-0.2l0.3-0.1
		C17.9,34.1,18,34,18.1,34z"/>
	<path class="st1" d="M27,34l1-0.7l-0.5-0.8l-1.1,0.6l-0.2,0.1L26,33.5c0-0.1,0.1-0.2,0.1-0.3c0-0.1,0-0.2,0-0.3v-1.3h-0.9V33
		c0,0.2,0,0.4,0.1,0.5c-0.1-0.1-0.3-0.2-0.4-0.3l-1.1-0.7l-0.5,0.8l1.1,0.6l0.3,0.1c0.1,0,0.2,0.1,0.3,0.1c-0.1,0-0.2,0-0.3,0.1
		l-0.3,0.1l-1,0.6l0.5,0.8l1.1-0.6c0.2-0.1,0.3-0.2,0.4-0.3l-0.1,0.3c0,0.1,0,0.2,0,0.3v1.3h0.9v-1.3c0-0.2,0-0.4-0.1-0.5l0.2,0.2
		l0.2,0.2l1.1,0.6L28,35l-1-0.6c-0.2-0.1-0.3-0.2-0.5-0.2l0.3-0.1C26.8,34.1,26.9,34,27,34z"/>
	<path class="st2" d="M35.8,34l1.1-0.6l-0.5-0.8l-1.1,0.6l-0.2,0.1c-0.1,0.1-0.1,0.1-0.2,0.2c0-0.1,0.1-0.2,0.1-0.3
		c0-0.1,0-0.2,0-0.3v-1.3h-0.9V33c0,0.2,0,0.4,0.1,0.5c-0.1-0.1-0.3-0.2-0.4-0.3l-1.1-0.7l-0.5,0.8l1.1,0.6l0.3,0.1
		c0.1,0,0.2,0.1,0.3,0.1c-0.1,0-0.2,0-0.3,0.1l-0.3,0.1L32.2,35l0.5,0.8l1.1-0.6c0.2-0.1,0.3-0.2,0.4-0.3c0,0.1,0,0.2-0.1,0.3
		c0,0.1,0,0.2,0,0.3v1.3H35v-1.3c0-0.2,0-0.4-0.1-0.5c0.1,0.1,0.1,0.1,0.2,0.2l0.2,0.2l1.1,0.6l0.5-0.8l-1.1-0.7
		c-0.2-0.1-0.3-0.2-0.5-0.2l0.3-0.1L35.8,34z"/>
	<path class="st3" d="M42.2,34.4L41.1,35l0.5,0.8l1.1-0.6c0.2-0.1,0.3-0.2,0.4-0.3c0,0.1-0.1,0.2-0.1,0.3c0,0.1,0,0.2,0,0.3v1.3h0.9
		v-1.3c0-0.2,0-0.4-0.1-0.5c0,0.1,0.1,0.1,0.2,0.2l0.2,0.2l1.1,0.6l0.5-0.8l-1.1-0.7c-0.2-0.1-0.3-0.2-0.5-0.2l0.3-0.1
		c0.1,0,0.2-0.1,0.3-0.1l1.1-0.6l-0.5-0.8l-1.1,0.6c-0.1,0-0.2,0.1-0.2,0.1c-0.1,0.1-0.1,0.1-0.2,0.2c0-0.1,0.1-0.2,0.1-0.3
		c0-0.1,0-0.2,0-0.3v-1.2H43V33c0,0.2,0,0.4,0.1,0.5c-0.1-0.1-0.3-0.2-0.4-0.3l-1.1-0.7l-0.5,0.8l1.1,0.6l0.3,0.1
		c0.1,0,0.2,0.1,0.3,0.1c-0.1,0-0.2,0-0.3,0.1L42.2,34.4z"/>
	<path d="M27.1,19.7h6.1c0.9,0,1.6-0.7,1.6-1.6v-4.2c0-0.7-0.5-1.3-1.2-1.5V9.9c0.1-1.9-1.4-3.5-3.2-3.6c-1.9-0.1-3.5,1.4-3.6,3.2
		c0,0.1,0,0.2,0,0.4v2.5c-0.7,0.2-1.2,0.8-1.2,1.5v4.2C25.5,19,26.2,19.7,27.1,19.7C27.1,19.7,27.1,19.7,27.1,19.7z M30.4,15.8V17
		c0,0.2-0.1,0.3-0.2,0.3c-0.2,0-0.3-0.1-0.3-0.2c0,0,0-0.1,0-0.1v-1.2c-0.2-0.1-0.4-0.3-0.4-0.6c0-0.4,0.2-0.7,0.6-0.8
		c0.4,0,0.7,0.2,0.8,0.6c0,0.1,0,0.1,0,0.2C30.8,15.4,30.6,15.7,30.4,15.8z M28.2,9.9c0.1-1.1,1-1.9,2.1-1.8C31.2,8.2,32,9,32,9.9
		v2.4h-3.8V9.9z"/>
</g>
<text transform="matrix(1 0 0 1 7.9999 67.167)" class="st4 st5">سامانه ورود کاربران</text>
</svg>
